<svg width="64" height="64" viewBox="0 0 64 64" fill="none" xmlns="http://www.w3.org/2000/svg">
  <defs>
    <linearGradient id="hubGrad" x1="8" y1="8" x2="56" y2="56" gradientUnits="userSpaceOnUse">
      <stop stop-color="#F9FBFF"></stop>
      <stop offset="1" stop-color="#D7E7FF"></stop>
    </linearGradient>
    <linearGradient id="hubBlue" x1="16" y1="12" x2="50" y2="52" gradientUnits="userSpaceOnUse">
      <stop stop-color="#3E8AF0"></stop>
      <stop offset="1" stop-color="#1D63C7"></stop>
    </linearGradient>
  </defs>

  <!-- outer soft diamond -->
  <rect x="10" y="10" width="32" height="32" rx="7" transform="rotate(45 10 10)" fill="url(#hubGrad)"></rect>

  <!-- inner cut -->
  <path d="M31.8 12.5L45.5 26.2C47.8 28.5 47.8 32.1 45.5 34.4L31.8 48.1C29.5 50.4 25.9 50.4 23.6 48.1L9.9 34.4C7.6 32.1 7.6 28.5 9.9 26.2L23.6 12.5C25.9 10.2 29.5 10.2 31.8 12.5Z" fill="url(#hubBlue)"></path>

  <!-- white center bevel -->
  <path d="M30.1 17.4L40.6 27.9C42.1 29.4 42.1 31.8 40.6 33.3L30.1 43.8C28.6 45.3 26.2 45.3 24.7 43.8L14.2 33.3C12.7 31.8 12.7 29.4 14.2 27.9L24.7 17.4C26.2 15.9 28.6 15.9 30.1 17.4Z" fill="white"></path>

  <!-- small right accent -->
  <path d="M39 20L48 29C49.7 30.7 49.7 33.3 48 35L39 44L34.8 39.8L41.7 32.9C42.2 32.4 42.2 31.6 41.7 31.1L34.8 24.2L39 20Z" fill="#A9CCFF" fill-opacity="0.95"></path>
</svg>